<?xml version="1.0" encoding="UTF-8" standalone="no"?>
<svg
   aria-hidden="true"
   focusable="false"
   data-prefix="fas"
   data-icon="child"
   class="svg-inline--fa fa-child fa-w-12"
   role="img"
   viewBox="0 0 384 512"
   version="1.1"
   id="svg59"
   sodipodi:docname="child-solid.svg"
   inkscape:version="1.1 (ce6663b3b7, 2021-05-25)"
   xmlns:inkscape="http://www.inkscape.org/namespaces/inkscape"
   xmlns:sodipodi="http://sodipodi.sourceforge.net/DTD/sodipodi-0.dtd"
   xmlns="http://www.w3.org/2000/svg"
   xmlns:svg="http://www.w3.org/2000/svg">
  <defs
     id="defs63" />
  <sodipodi:namedview
     id="namedview61"
     pagecolor="#505050"
     bordercolor="#eeeeee"
     borderopacity="1"
     inkscape:pageshadow="0"
     inkscape:pageopacity="0"
     inkscape:pagecheckerboard="0"
     showgrid="false"
     inkscape:zoom="1.2246094"
     inkscape:cx="192.30622"
     inkscape:cy="256"
     inkscape:window-width="1528"
     inkscape:window-height="836"
     inkscape:window-x="72"
     inkscape:window-y="27"
     inkscape:window-maximized="1"
     inkscape:current-layer="svg59"
     showguides="false" />
  <path
     fill="currentColor"
     d="M120 72c0-39.765 32.235-72 72-72s72 32.235 72 72c0 39.764-32.235 72-72 72s-72-32.236-72-72zm254.627 1.373c-12.496-12.497-32.758-12.497-45.254 0L242.745 160H141.254L54.627 73.373c-12.496-12.497-32.758-12.497-45.254 0-12.497 12.497-12.497 32.758 0 45.255L104 213.254V480c0 17.673 14.327 32 32 32h16c17.673 0 32-14.327 32-32V368h16v112c0 17.673 14.327 32 32 32h16c17.673 0 32-14.327 32-32V213.254l94.627-94.627c12.497-12.497 12.497-32.757 0-45.254z"
     id="path57" />
  <path
     style="fill:#0000ff;stroke-width:0.816587"
     d="m 126.84565,510.02481 c -5.8383,-1.86715 -9.1768,-3.94263 -13.49037,-8.38674 -4.0338,-4.15587 -7.08135,-10.0101 -8.33603,-16.01319 -0.64032,-3.06369 -0.90442,-43.59546 -0.90442,-138.80459 V 212.34298 L 54.431872,162.51599 C -2.2253814,105.69448 0.88388659,109.55794 0.85949693,95.948963 0.84677663,88.851229 1.0704889,87.729163 3.4896224,82.757138 9.6346666,70.127278 23.945465,62.487998 36.965449,64.88733 c 10.459083,1.927407 10.170532,1.681103 59.006812,50.36739 l 45.343859,45.20461 h 50.99705 50.99704 l 46.15351,-46.04004 c 42.73559,-42.630529 46.4861,-46.161011 50.64473,-47.673588 16.44351,-5.980833 33.01272,0.644318 40.35425,16.135531 2.26179,4.77255 2.51657,6.095537 2.51657,13.06773 0,6.820597 -0.28844,8.398667 -2.38805,13.065387 -2.2199,4.93407 -5.85677,8.78808 -51.64913,54.73281 l -49.26107,49.42499 v 135.24178 c 0,132.36225 -0.0344,135.35296 -1.61268,140.46307 -2.83987,9.19439 -8.7332,15.86692 -17.74231,20.08815 -4.62992,2.16934 -5.07647,2.21826 -20.24947,2.21826 H 224.5614 l -5.47171,-2.59217 c -6.96141,-3.29789 -12.31924,-8.65572 -15.61713,-15.61714 l -2.59218,-5.47171 -0.2246,-59.81499 -0.2246,-59.81499 h -8.53338 -8.53339 l -0.22447,60.22328 -0.22447,60.22329 -1.85293,4.01788 c -3.95476,8.57547 -11.20441,15.01358 -19.98252,17.74563 -6.83786,2.12817 -27.50839,2.09335 -34.23437,-0.0577 z"
     id="path219" />
  <path
     style="fill:#0065fc;stroke-width:0.816587;fill-opacity:1"
     d="m 177.19936,142.00815 c -34.68033,-7.69462 -58.71789,-39.43132 -56.48551,-74.577578 1.94593,-30.636413 22.84117,-56.047331 53.21916,-64.7203884 5.51359,-1.5741529 8.37984,-1.85631026 18.37321,-1.80867825 10.39892,0.0495652 12.71507,0.32214195 19.02369,2.23882105 26.19201,7.9576296 45.40358,28.6349186 50.72851,54.5987726 7.25764,35.387585 -13.73628,71.072691 -48.50037,82.440071 -6.90583,2.25812 -9.06025,2.57442 -19.21036,2.82029 -8.22302,0.1992 -13.03682,-0.079 -17.14833,-0.99131 z"
     id="path258" />
  <path
     style="fill:#0065fc;fill-opacity:1;stroke-width:0.816587"
     d="m 134.2657,510.77011 c -12.33778,-1.18283 -22.70668,-8.61767 -27.00109,-19.36069 l -1.88821,-4.72361 -0.52612,-65.32696 c -0.28936,-35.92982 -0.57322,-97.83156 -0.63079,-137.55941 L 104.11483,211.56698 58.137963,165.39433 C 32.850684,139.99938 10.481072,117.20064 8.4277143,114.73046 2.3771744,107.4517 1.2247798,104.48442 1.2255246,96.185641 1.2260836,89.957253 1.5401428,88.344297 3.6001851,83.989786 9.5351589,71.444456 21.749269,64.07485 34.793937,65.168468 c 6.404241,0.536909 10.732016,2.508741 17.059333,7.772617 2.470175,2.05501 23.432993,22.587301 46.584038,45.627315 l 42.092812,41.89093 h 51.7609 51.76091 l 45.37435,-45.17909 c 52.02555,-51.801662 49.71567,-49.956306 62.52268,-49.94922 6.51171,0.0036 7.9542,0.29085 12.6571,2.520447 6.39978,3.034068 11.94779,8.453976 15.17654,14.826109 3.2862,6.485501 3.79673,17.072404 1.16214,24.099214 -2.25775,6.02171 -12.35802,16.81177 -63.62433,67.96948 l -37.63939,37.55967 -0.0989,80.43714 c -0.0544,44.24043 -0.32999,106.15963 -0.61244,137.59823 l -0.51354,57.16108 -2.34306,5.07231 c -2.76311,5.98165 -9.52112,12.81535 -15.62185,15.79679 -3.82775,1.87063 -5.06452,2.01112 -19.78824,2.24787 l -15.7053,0.25254 -5.17845,-2.47144 c -6.56817,-3.1347 -12.68543,-9.22533 -15.97312,-15.90359 l -2.55744,-5.19489 v -47.33615 c 0,-26.03488 -0.24111,-52.90654 -0.53579,-59.71479 l -0.53579,-12.37863 h -8.31965 -8.31965 l -0.53232,11.63636 c -0.29278,6.4 -0.53367,33.5202 -0.53531,60.26711 l -0.003,48.63073 -2.20706,4.44742 c -2.89848,5.84066 -9.71869,12.59018 -15.30751,15.14882 -6.72906,3.08066 -17.4173,4.04325 -30.72691,2.76726 z"
     id="path3239" />
</svg>
