<?xml version="1.0" encoding="UTF-8" standalone="no"?>
<svg
   aria-hidden="true"
   focusable="false"
   data-prefix="fas"
   data-icon="dog"
   class="svg-inline--fa fa-dog fa-w-18"
   role="img"
   viewBox="0 0 576 512"
   version="1.1"
   id="svg3342"
   sodipodi:docname="dog-solid.svg"
   inkscape:version="1.1 (ce6663b3b7, 2021-05-25)"
   xmlns:inkscape="http://www.inkscape.org/namespaces/inkscape"
   xmlns:sodipodi="http://sodipodi.sourceforge.net/DTD/sodipodi-0.dtd"
   xmlns="http://www.w3.org/2000/svg"
   xmlns:svg="http://www.w3.org/2000/svg">
  <defs
     id="defs3346" />
  <sodipodi:namedview
     id="namedview3344"
     pagecolor="#505050"
     bordercolor="#eeeeee"
     borderopacity="1"
     inkscape:pageshadow="0"
     inkscape:pageopacity="0"
     inkscape:pagecheckerboard="0"
     showgrid="false"
     inkscape:zoom="1.296875"
     inkscape:cx="288"
     inkscape:cy="255.61446"
     inkscape:window-width="1528"
     inkscape:window-height="836"
     inkscape:window-x="72"
     inkscape:window-y="27"
     inkscape:window-maximized="1"
     inkscape:current-layer="svg3342" />
  <path
     fill="currentColor"
     d="M298.06,224,448,277.55V496a16,16,0,0,1-16,16H368a16,16,0,0,1-16-16V384H192V496a16,16,0,0,1-16,16H112a16,16,0,0,1-16-16V282.09C58.84,268.84,32,233.66,32,192a32,32,0,0,1,64,0,32.06,32.06,0,0,0,32,32ZM544,112v32a64,64,0,0,1-64,64H448v35.58L320,197.87V48c0-14.25,17.22-21.39,27.31-11.31L374.59,64h53.63c10.91,0,23.75,7.92,28.62,17.69L464,96h64A16,16,0,0,1,544,112Zm-112,0a16,16,0,1,0-16,16A16,16,0,0,0,432,112Z"
     id="path3340" />
  <path
     style="fill:#0065fc;stroke-width:0.771084"
     d="m 106.0296,510.38614 c -3.5214,-1.52708 -5.94041,-3.84156 -7.984158,-7.63915 l -1.6599,-3.08434 L 96.177306,390.79908 95.969069,281.93551 88.00912,278.13312 C 76.755525,272.7574 68.989915,267.29901 60.459908,258.76901 42.686578,240.99568 32.783436,217.91573 32.698529,194.06923 c -0.04091,-11.48874 2.623986,-18.13734 10.056356,-25.08945 12.509719,-11.70138 32.102131,-11.06993 43.910038,1.4152 5.674842,6.0003 7.684495,10.86053 8.93365,21.60549 1.736981,14.94113 7.427287,23.80153 18.721817,29.15181 l 5.19768,2.46218 89.83133,0.39208 89.83132,0.39209 74.0241,26.65955 74.0241,26.65956 0.22492,109.81583 c 0.15851,77.39042 -0.0225,110.6734 -0.6131,112.72018 -1.09726,3.80282 -4.99305,8.16674 -8.85822,9.92265 -2.84212,1.29114 -5.90185,1.40555 -38.00729,1.42112 -29.79766,0.0144 -35.33505,-0.15801 -37.7726,-1.17649 -3.65494,-1.52713 -6.07372,-3.80265 -8.15719,-7.67404 -1.65119,-3.06815 -1.66105,-3.38877 -1.88038,-61.10844 l -0.22049,-58.02409 h -80.16505 -80.16506 v 57.47055 c 0,62.80125 0.15871,60.48073 -4.47464,65.42186 -1.14377,1.21974 -3.46753,2.86032 -5.16392,3.64572 -2.86077,1.32449 -5.6273,1.42704 -38.16867,1.41475 -29.61717,-0.0112 -35.50403,-0.19525 -37.77763,-1.1812 z"
     id="path3385" />
  <path
     style="fill:#0065fc;stroke-width:0.771084"
     d="m 383.03614,219.99 -62.6506,-22.42517 v -76.25297 c 0,-82.610395 -0.16481,-79.229972 4.085,-83.786016 4.33691,-4.64943 12.96684,-6.317737 18.401,-3.557215 1.41584,0.719234 9.14634,7.839012 17.1789,15.821729 l 14.60465,14.51403 30.16051,0.233348 30.16051,0.233348 5.98377,2.958467 c 8.59495,4.249475 12.98605,8.987179 18.17473,19.609335 l 4.19486,8.587612 33.97382,0.229522 c 37.50608,0.253386 36.91659,0.179365 41.86009,5.25627 4.19401,4.30719 4.45388,6.00528 4.42295,28.90096 -0.0309,22.89967 -0.65904,27.68073 -5.02846,38.27669 -6.63007,16.07809 -21.22997,29.70179 -37.94733,35.41004 -8.96655,3.0617 -15.95797,3.80725 -35.70248,3.80725 h -17.2936 v 17.3494 c 0,13.38968 -0.21998,17.33903 -0.96386,17.30397 -0.53012,-0.025 -29.15662,-10.13675 -63.61446,-22.4706 z m 39.52469,-93.04251 c 12.15597,-5.52235 12.88803,-22.99415 1.22151,-29.153352 -10.29604,-5.43567 -22.87542,1.14822 -23.8138,12.463842 -1.04871,12.64611 11.3428,21.80004 22.59229,16.68951 z"
     id="path3424" />
</svg>
