<?xml version="1.0" encoding="UTF-8" standalone="no"?>
<svg
   aria-hidden="true"
   focusable="false"
   data-prefix="fas"
   data-icon="info"
   class="svg-inline--fa fa-info fa-w-6"
   role="img"
   viewBox="0 0 192 512"
   version="1.1"
   id="svg3640"
   sodipodi:docname="info-solid.svg"
   inkscape:version="1.1 (ce6663b3b7, 2021-05-25)"
   xmlns:inkscape="http://www.inkscape.org/namespaces/inkscape"
   xmlns:sodipodi="http://sodipodi.sourceforge.net/DTD/sodipodi-0.dtd"
   xmlns="http://www.w3.org/2000/svg"
   xmlns:svg="http://www.w3.org/2000/svg">
  <defs
     id="defs3644" />
  <sodipodi:namedview
     id="namedview3642"
     pagecolor="#505050"
     bordercolor="#eeeeee"
     borderopacity="1"
     inkscape:pageshadow="0"
     inkscape:pageopacity="0"
     inkscape:pagecheckerboard="0"
     showgrid="false"
     inkscape:zoom="1.296875"
     inkscape:cx="96"
     inkscape:cy="255.61446"
     inkscape:window-width="1528"
     inkscape:window-height="836"
     inkscape:window-x="72"
     inkscape:window-y="27"
     inkscape:window-maximized="1"
     inkscape:current-layer="svg3640" />
  <path
     fill="currentColor"
     d="M20 424.229h20V279.771H20c-11.046 0-20-8.954-20-20V212c0-11.046 8.954-20 20-20h112c11.046 0 20 8.954 20 20v212.229h20c11.046 0 20 8.954 20 20V492c0 11.046-8.954 20-20 20H20c-11.046 0-20-8.954-20-20v-47.771c0-11.046 8.954-20 20-20zM96 0C56.235 0 24 32.235 24 72s32.235 72 72 72 72-32.235 72-72S135.764 0 96 0z"
     id="path3638" />
  <path
     style="fill:#0065fc;stroke-width:0.771084"
     d="M 12.337349,509.80021 C 7.6978714,507.63515 3.3873131,503.05924 1.6145625,498.41736 0.46175406,495.39877 0.33864166,491.77949 0.54170201,466.87723 c 0.22132642,-27.14231 0.2879404,-28.23856 1.89675269,-31.21458 1.9673466,-3.63924 5.7503546,-7.35931 9.5133523,-9.35509 2.247856,-1.19219 4.856864,-1.47516 15.614458,-1.69349 l 12.915663,-0.26213 v -72.33919 -72.33918 l -12.915663,-0.29325 c -10.633837,-0.24144 -13.392462,-0.54288 -15.614458,-1.70624 -3.7453577,-1.96094 -7.5385573,-5.68371 -9.5133523,-9.33673 -1.60951429,-2.97731 -1.67528655,-4.06649 -1.89550947,-31.3893 -0.22207552,-27.55266 -0.1838895,-28.40782 1.43673907,-32.17507 0.915683,-2.12857 3.1206243,-5.21198 4.8998692,-6.85203 6.3757495,-5.87696 2.8193843,-5.6053 70.2288805,-5.36461 57.703826,0.20603 60.266726,0.27535 63.154426,1.70813 3.83784,1.90421 7.47208,5.53844 9.37628,9.37628 1.45292,2.92827 1.49883,5.95985 1.69401,111.84792 l 0.20062,108.83807 12.90781,0.2931 c 10.62639,0.24129 13.38483,0.54283 15.60661,1.70608 3.74536,1.96094 7.53856,5.68371 9.51336,9.33673 1.60881,2.97602 1.67542,4.07227 1.89675,31.21458 0.20306,24.90226 0.0799,28.52154 -1.07287,31.54013 -1.77274,4.64188 -6.0833,9.21779 -10.72278,11.38285 l -3.85542,1.79918 H 96 16.192771 Z"
     id="path3683" />
  <path
     style="fill:#0065fc;stroke-width:0.771084"
     d="M 86.603535,143.02883 C 57.120849,138.34869 34.103673,117.82533 26.509556,89.445783 24.328255,81.294165 24.087282,64.282207 26.042764,56.491711 29.634113,42.184041 36.070029,30.850731 46.300288,20.819277 53.946693,13.321466 62.572107,8.0008274 72.665078,4.5559989 82.720573,1.1239614 89.946501,0.08700484 99.855422,0.65404954 122.82093,1.968266 143.40273,13.8763 155.99995,33.137641 c 7.961,12.172495 11.24618,23.724249 11.18902,39.344287 -0.048,13.128204 -1.52596,19.521681 -7.12979,30.843372 -9.4015,18.99428 -27.15632,33.37693 -47.09532,38.15051 -7.60522,1.82075 -20.053637,2.55415 -26.360325,1.55302 z"
     id="path3722" />
</svg>
