<?xml version="1.0" encoding="UTF-8" standalone="no"?>
<svg
   aria-hidden="true"
   focusable="false"
   data-prefix="fas"
   data-icon="money-bill-wave"
   class="svg-inline--fa fa-money-bill-wave fa-w-20"
   role="img"
   viewBox="0 0 640 512"
   version="1.1"
   id="svg3801"
   sodipodi:docname="money-bill-wave-solid.svg"
   inkscape:version="1.1 (ce6663b3b7, 2021-05-25)"
   xmlns:inkscape="http://www.inkscape.org/namespaces/inkscape"
   xmlns:sodipodi="http://sodipodi.sourceforge.net/DTD/sodipodi-0.dtd"
   xmlns="http://www.w3.org/2000/svg"
   xmlns:svg="http://www.w3.org/2000/svg">
  <defs
     id="defs3805" />
  <sodipodi:namedview
     id="namedview3803"
     pagecolor="#505050"
     bordercolor="#eeeeee"
     borderopacity="1"
     inkscape:pageshadow="0"
     inkscape:pageopacity="0"
     inkscape:pagecheckerboard="0"
     showgrid="false"
     inkscape:zoom="1.296875"
     inkscape:cx="319.61446"
     inkscape:cy="255.61446"
     inkscape:window-width="1528"
     inkscape:window-height="836"
     inkscape:window-x="72"
     inkscape:window-y="27"
     inkscape:window-maximized="1"
     inkscape:current-layer="svg3801" />
  <path
     fill="currentColor"
     d="M621.16 54.46C582.37 38.19 543.55 32 504.75 32c-123.17-.01-246.33 62.34-369.5 62.34-30.89 0-61.76-3.92-92.65-13.72-3.47-1.1-6.95-1.62-10.35-1.62C15.04 79 0 92.32 0 110.81v317.26c0 12.63 7.23 24.6 18.84 29.46C57.63 473.81 96.45 480 135.25 480c123.17 0 246.34-62.35 369.51-62.35 30.89 0 61.76 3.92 92.65 13.72 3.47 1.1 6.95 1.62 10.35 1.62 17.21 0 32.25-13.32 32.25-31.81V83.93c-.01-12.64-7.24-24.6-18.85-29.47zM48 132.22c20.12 5.04 41.12 7.57 62.72 8.93C104.84 170.54 79 192.69 48 192.69v-60.47zm0 285v-47.78c34.37 0 62.18 27.27 63.71 61.4-22.53-1.81-43.59-6.31-63.71-13.62zM320 352c-44.19 0-80-42.99-80-96 0-53.02 35.82-96 80-96s80 42.98 80 96c0 53.03-35.83 96-80 96zm272 27.78c-17.52-4.39-35.71-6.85-54.32-8.44 5.87-26.08 27.5-45.88 54.32-49.28v57.72zm0-236.11c-30.89-3.91-54.86-29.7-55.81-61.55 19.54 2.17 38.09 6.23 55.81 12.66v48.89z"
     id="path3799" />
  <path
     style="fill:#0065fc;stroke-width:0.771084"
     d="M 120.28916,479.1941 C 88.019092,477.84696 56.919943,471.61135 27.956995,460.68081 22.346007,458.56323 16.471824,455.98137 14.903254,454.94334 8.1114726,450.44876 2.8353866,442.70697 1.1451381,434.75559 0.6153492,432.26332 0.42321126,376.96144 0.56278539,267.14059 L 0.77108434,103.24503 3.6748988,97.369706 C 11.387929,81.763832 26.934829,76.10627 45.879518,82.011323 c 15.096595,4.705603 36.355886,8.961856 55.132532,11.037903 12.29419,1.359312 56.6561,1.363617 70.55422,0.0069 38.55269,-3.763629 70.03112,-9.9331 140.33734,-27.504789 67.49656,-16.869465 89.77841,-21.851842 118.97327,-26.603246 50.79705,-8.267118 95.27574,-8.485908 135.45265,-0.666292 22.26405,4.333243 51.65806,13.940954 59.79095,19.543238 6.29804,4.338358 11.07316,11.606105 12.72239,19.363497 0.54556,2.566143 0.73593,56.256856 0.59435,167.630786 l -0.2083,163.85542 -2.3924,5.04857 c -4.06261,8.57314 -9.50857,13.5616 -18.42688,16.87885 -7.34453,2.73187 -13.93961,2.39894 -26.98795,-1.36239 -42.00282,-12.10776 -86.48901,-14.86101 -138.40964,-8.5662 -34.21362,4.14804 -59.25828,9.36509 -130.97053,27.28247 -45.00203,11.2438 -66.31892,16.26218 -85.26316,20.07248 -30.30235,6.09479 -60.59018,10.12504 -81.39372,10.83066 -6.57963,0.22317 -14.21837,0.51296 -16.975,0.64397 -2.75663,0.13102 -10.91084,-0.008 -18.12048,-0.30901 z m -8.49598,-52.59169 c -2.89191,-25.29326 -20.267844,-46.62797 -44.3233,-54.42154 -5.321545,-1.7241 -13.392578,-3.20155 -17.542169,-3.21119 l -2.506024,-0.006 v 24.2254 24.2254 l 8.289156,2.73049 c 16.308727,5.37217 38.316646,9.80311 55.593787,11.19291 0.82366,0.0662 0.92512,-0.91725 0.48855,-4.73565 z m 480.78513,-75.75904 v -28.91566 h -1.84145 c -2.87192,0 -14.77823,3.65546 -19.21491,5.89934 -9.97425,5.04455 -19.74922,13.85551 -25.85939,23.30913 -3.12841,4.84026 -7.43866,14.9112 -7.95061,18.57669 l -0.26617,1.90565 12.29859,1.3547 c 12.95549,1.42707 28.01071,3.81415 35.1231,5.56894 2.33253,0.57549 5.02169,1.08471 5.9759,1.13161 l 1.73494,0.0853 z m -253.8285,-1.08958 c 25.66347,-7.47379 46.86459,-29.87773 56.29789,-59.49187 3.73465,-11.72427 4.98974,-20.3423 4.98974,-34.26192 0,-13.91962 -1.25509,-22.53765 -4.98974,-34.26192 -6.22722,-19.54922 -18.00209,-36.67304 -32.87813,-47.81359 -21.01523,-15.73815 -49.4786,-18.46376 -72.77573,-6.9689 -24.43936,12.05843 -42.34484,37.89233 -48.12412,69.43309 -1.79935,9.82008 -1.78791,29.27279 0.0231,39.27035 2.85328,15.75131 9.30937,31.33788 17.953,43.34282 4.74771,6.59399 14.62955,16.51548 20.4077,20.48958 7.89028,5.42678 19.3027,10.13008 29.16577,12.0198 1.06024,0.20314 6.95903,0.26047 13.10843,0.1274 8.58447,-0.18576 12.4907,-0.62344 16.8221,-1.88484 z M 57.445783,192.35421 c 24.909772,-3.9301 45.752747,-22.31162 52.368017,-46.18361 l 1.50964,-5.44771 h -1.75474 c -8.5702,0 -36.589122,-3.6164 -50.957598,-6.57709 -5.084376,-1.04766 -9.681966,-1.90484 -10.216867,-1.90484 -0.76626,0 -0.972548,6.46044 -0.972548,30.45784 v 30.45783 l 2.506024,-0.006 c 1.378313,-0.003 4.761446,-0.36168 7.518072,-0.79659 z M 592.57831,119.17115 V 94.535072 l -8.61464,-2.78493 c -13.92416,-4.501379 -38.32643,-9.629035 -45.82639,-9.629509 l -2.39283,-1.51e-4 0.33153,4.048193 c 1.76346,21.532575 15.57547,41.689525 35.45663,51.744605 4.61424,2.3337 15.79779,5.79237 18.92522,5.8529 l 2.12048,0.0411 z"
     id="path3844" />
</svg>
