<?xml version="1.0" encoding="UTF-8" standalone="no"?>
<svg
   aria-hidden="true"
   focusable="false"
   data-prefix="fas"
   data-icon="search"
   class="svg-inline--fa fa-search fa-w-16"
   role="img"
   viewBox="0 0 512 512"
   version="1.1"
   id="svg43"
   sodipodi:docname="search-solid.svg"
   inkscape:version="1.1 (ce6663b3b7, 2021-05-25)"
   xmlns:inkscape="http://www.inkscape.org/namespaces/inkscape"
   xmlns:sodipodi="http://sodipodi.sourceforge.net/DTD/sodipodi-0.dtd"
   xmlns="http://www.w3.org/2000/svg"
   xmlns:svg="http://www.w3.org/2000/svg">
  <defs
     id="defs47" />
  <sodipodi:namedview
     id="namedview45"
     pagecolor="#505050"
     bordercolor="#eeeeee"
     borderopacity="1"
     inkscape:pageshadow="0"
     inkscape:pageopacity="0"
     inkscape:pagecheckerboard="0"
     showgrid="false"
     inkscape:zoom="1.1191406"
     inkscape:cx="256"
     inkscape:cy="256"
     inkscape:window-width="1600"
     inkscape:window-height="782"
     inkscape:window-x="0"
     inkscape:window-y="27"
     inkscape:window-maximized="1"
     inkscape:current-layer="svg43" />
  <path
     fill="currentColor"
     d="M505 442.7L405.3 343c-4.5-4.5-10.6-7-17-7H372c27.6-35.3 44-79.7 44-128C416 93.1 322.9 0 208 0S0 93.1 0 208s93.1 208 208 208c48.3 0 92.7-16.4 128-44v16.3c0 6.4 2.5 12.5 7 17l99.7 99.7c9.4 9.4 24.6 9.4 33.9 0l28.3-28.3c9.4-9.4 9.4-24.6.1-34zM208 336c-70.7 0-128-57.2-128-128 0-70.7 57.2-128 128-128 70.7 0 128 57.2 128 128 0 70.7-57.2 128-128 128z"
     id="path41" />
  <path
     style="fill:#ffffff;stroke-width:0.893543"
     d="m 454.32232,510.76941 c -2.23582,-0.59553 -5.45257,-1.94902 -7.14835,-3.00778 -1.69577,-1.05875 -26.6548,-25.56861 -55.46451,-54.46635 -59.86429,-60.04723 -55.29061,-54.13559 -55.29061,-71.46493 0,-5.56411 -0.24371,-10.11656 -0.54158,-10.11656 -0.29786,0 -2.00676,1.15366 -3.79755,2.56369 -13.49204,10.62332 -39.69274,24.3967 -57.76209,30.36481 -23.35278,7.71318 -40.52609,10.39242 -66.56894,10.38556 -21.71649,-0.005 -32.33026,-1.28133 -51.37871,-6.17493 C 83.370629,390.09916 25.832544,332.58114 7.1672693,259.70221 3.0006693,243.43364 1.3566469,231.7295 0.74819847,214.00349 -0.09904823,189.32054 3.1424508,167.2942 11.26803,142.52007 35.850929,67.569134 102.5176,12.587249 181.38918,2.216367 194.06444,0.54968758 219.91999,0.31937649 231.42757,1.7706447 281.00532,8.0231 322.77142,28.734502 357.01222,64.046843 c 31.87635,32.87389 51.17686,73.379407 57.18984,120.022967 1.3468,10.44727 1.34,36.95445 -0.0122,47.80454 -4.39241,35.24329 -16.87602,67.77085 -36.78736,95.85392 -2.88304,4.06626 -5.24188,7.52542 -5.24188,7.68702 0,0.16161 4.77697,0.51392 10.61548,0.78292 8.11308,0.3738 11.64123,0.94011 14.96684,2.40236 3.5457,1.55902 14.05183,11.60499 56.74327,54.25795 37.3002,37.26657 52.9986,53.53575 54.49805,56.47955 2.93743,5.76692 2.92993,14.98529 -0.0168,20.66542 -3.16789,6.10642 -33.33412,36.16446 -38.9639,38.82417 -5.71928,2.70199 -10.57131,3.3028 -15.68118,1.94175 z M 228.77359,334.65622 c 37.58535,-6.09616 71.86967,-29.81961 90.7286,-62.78076 C 347.58173,222.79875 339.90671,160.27772 300.80105,119.53518 282.08515,100.03588 259.91649,87.715201 233.38301,82.066237 221.02475,79.43517 197.0375,79.244239 184.51658,81.677274 132.669,91.752169 93.529631,130.20886 82.077364,182.3297 c -2.348944,10.69037 -2.369674,39.96078 -0.03604,50.88496 5.594731,26.18996 16.623684,46.5456 35.383126,65.30505 19.37903,19.37903 42.04464,31.30811 68.43244,36.01652 9.59386,1.71184 32.7039,1.77645 42.9167,0.11999 z"
     id="path240" />
</svg>
