<?xml version="1.0" encoding="UTF-8" standalone="no"?>
<svg
   aria-hidden="true"
   focusable="false"
   data-prefix="fas"
   data-icon="star"
   class="svg-inline--fa fa-star fa-w-18"
   role="img"
   viewBox="0 0 576 512"
   version="1.1"
   id="svg3930"
   sodipodi:docname="star-solid-grey.svg"
   inkscape:version="1.1 (ce6663b3b7, 2021-05-25)"
   xmlns:inkscape="http://www.inkscape.org/namespaces/inkscape"
   xmlns:sodipodi="http://sodipodi.sourceforge.net/DTD/sodipodi-0.dtd"
   xmlns="http://www.w3.org/2000/svg"
   xmlns:svg="http://www.w3.org/2000/svg">
  <defs
     id="defs3934" />
  <sodipodi:namedview
     id="namedview3932"
     pagecolor="#505050"
     bordercolor="#eeeeee"
     borderopacity="1"
     inkscape:pageshadow="0"
     inkscape:pageopacity="0"
     inkscape:pagecheckerboard="0"
     showgrid="false"
     inkscape:zoom="1.296875"
     inkscape:cx="288"
     inkscape:cy="255.61446"
     inkscape:window-width="1528"
     inkscape:window-height="836"
     inkscape:window-x="72"
     inkscape:window-y="27"
     inkscape:window-maximized="1"
     inkscape:current-layer="svg3930" />
  <path
     fill="currentColor"
     d="M259.3 17.8L194 150.2 47.9 171.5c-26.2 3.8-36.7 36.1-17.7 54.6l105.7 103-25 145.5c-4.5 26.3 23.2 46 46.4 33.7L288 439.6l130.7 68.7c23.2 12.2 50.9-7.4 46.4-33.7l-25-145.5 105.7-103c19-18.5 8.5-50.8-17.7-54.6L382 150.2 316.7 17.8c-11.7-23.6-45.6-23.9-57.4 0z"
     id="path3928" />
  <path
     style="fill:#f2f2f2;stroke-width:0.771084;fill-opacity:1"
     d="m 135.03055,510.75678 c -4.85335,-1.13938 -11.77207,-5.24739 -15.43757,-9.16612 -4.46199,-4.77022 -7.18327,-10.26675 -8.2878,-16.73996 -0.87646,-5.13654 -0.6478,-6.66432 12.00904,-80.23645 7.09638,-41.25011 12.78869,-75.3086 12.64957,-75.68554 -0.13912,-0.37694 -24.36861,-24.16734 -53.843308,-52.86757 -29.474699,-28.70023 -54.532398,-53.57702 -55.683777,-55.28176 -4.02582,-5.96065 -5.409917,-11.06686 -5.08384,-18.75528 0.246003,-5.80041 0.693894,-7.79311 2.728086,-12.13745 4.16748,-8.90033 12.092783,-15.34988 21.413025,-17.42577 2.120482,-0.47229 36.472289,-5.59187 76.337354,-11.37683 39.86506,-5.78497 72.51755,-10.56412 72.56111,-10.62036 0.0436,-0.0562 9.64171,-19.53357 21.32924,-43.28297 39.01771,-79.285061 45.79987,-92.767621 47.96715,-95.356007 6.40283,-7.6469196 16.46555,-11.96808639 26.14151,-11.22578103 8.15266,0.62544243 13.59686,2.97865683 19.35685,8.36684573 5.5102,5.1545203 0.55791,-4.3441863 48.79369,93.5884423 12.95085,26.29397 23.58275,47.85055 23.62644,47.9035 0.0436,0.053 32.69629,4.83041 72.56135,10.61659 39.86506,5.78617 74.21687,10.90843 76.33735,11.3828 9.32923,2.08701 17.24664,8.53154 21.41303,17.42954 2.03419,4.34434 2.48208,6.33704 2.72808,12.13745 0.32601,7.68674 -1.05536,12.78465 -5.08383,18.76182 -1.15139,1.70834 -26.20908,26.58954 -55.68378,55.29157 -29.4747,28.70202 -53.70202,52.48297 -53.83848,52.84655 -0.13647,0.36359 5.55508,34.41766 12.64788,75.67574 12.64497,73.55447 12.87864,75.11661 12.00422,80.25092 -3.15438,18.52151 -21.92647,30.73669 -39.30464,25.57593 -2.19991,-0.6533 -34.01307,-16.97014 -70.6959,-36.25964 l -66.69606,-35.07182 -66.6459,35.05795 c -36.65525,19.28188 -68.46685,35.59871 -70.69244,36.25964 -4.40567,1.30835 -10.91004,1.45153 -15.62765,0.34402 z"
     id="path3973" />
</svg>
